<svg width="36" height="36" viewBox="0 0 36 36" fill="none" xmlns="http://www.w3.org/2000/svg">
<path fill-rule="evenodd" clip-rule="evenodd" d="M20.0816 5.36224C18.932 4.21259 17.068 4.21258 15.9184 5.36224L13.4579 7.8227C12.3082 8.97235 12.3082 10.8363 13.4579 11.986L15.9184 14.4464C17.068 15.5961 18.932 15.5961 20.0816 14.4464L22.5421 11.986C23.6917 10.8363 23.6917 8.97235 22.5421 7.8227L20.0816 5.36224ZM20.0816 21.5536C18.932 20.4039 17.068 20.4039 15.9184 21.5536L13.4579 24.014C12.3082 25.1637 12.3082 27.0276 13.4579 28.1773L15.9184 30.6378C17.068 31.7874 18.932 31.7874 20.0816 30.6378L22.5421 28.1773C23.6917 27.0276 23.6917 25.1637 22.5421 24.014L20.0816 21.5536ZM7.82269 13.4579C8.97234 12.3083 10.8363 12.3083 11.986 13.4579L14.4464 15.9184C15.5961 17.068 15.5961 18.932 14.4464 20.0816L11.986 22.5421C10.8363 23.6917 8.97234 23.6917 7.82269 22.5421L5.36224 20.0816C4.21259 18.932 4.21259 17.068 5.36224 15.9184L7.82269 13.4579ZM28.1773 13.4579C27.0276 12.3082 25.1637 12.3082 24.014 13.4579L21.5536 15.9184C20.4039 17.068 20.4039 18.932 21.5536 20.0816L24.014 22.5421C25.1637 23.6917 27.0276 23.6917 28.1773 22.5421L30.6378 20.0816C31.7874 18.932 31.7874 17.068 30.6378 15.9184L28.1773 13.4579Z" fill="#263238"/>
</svg>
