<svg width="36" height="36" viewBox="0 0 36 36" fill="none" xmlns="http://www.w3.org/2000/svg">
<path fill-rule="evenodd" clip-rule="evenodd" d="M12.7405 8.31702C11.5673 7.22766 9.66512 7.22766 8.49192 8.31702L3.8799 12.5995C2.7067 13.6888 2.7067 15.455 3.8799 16.5444L11.2602 23.3973L11.2637 23.4006L15.8757 27.683C16.0224 27.8191 16.1804 27.9383 16.347 28.0404C16.8997 28.3793 17.5463 28.5307 18.1831 28.4949C18.8898 28.455 19.5843 28.1844 20.1243 27.683L24.7363 23.4005L32.1201 16.5444C33.2933 15.455 33.2933 13.6888 32.1201 12.5995L27.5081 8.31703C26.3349 7.22767 24.4327 7.22767 23.2595 8.31703L18 13.2007L12.7405 8.31702Z" fill="#B01F24"/>
</svg>
