<svg width="72" height="72" viewBox="0 0 72 72" fill="none" xmlns="http://www.w3.org/2000/svg">
<path fill-rule="evenodd" clip-rule="evenodd" d="M40.1633 10.7245C37.864 8.42517 34.136 8.42517 31.8367 10.7245L26.9158 15.6454C24.6165 17.9447 24.6165 21.6726 26.9158 23.9719L31.8367 28.8928C34.136 31.1922 37.864 31.1922 40.1633 28.8929L45.0842 23.9719C47.3835 21.6726 47.3835 17.9447 45.0842 15.6454L40.1633 10.7245ZM40.1633 43.1072C37.8639 40.8078 34.136 40.8078 31.8367 43.1072L26.9158 48.0281C24.6165 50.3274 24.6165 54.0553 26.9158 56.3546L31.8367 61.2755C34.136 63.5748 37.8639 63.5748 40.1633 61.2755L45.0842 56.3546C47.3835 54.0553 47.3835 50.3274 45.0842 48.0281L40.1633 43.1072ZM15.6454 26.9158C17.9447 24.6165 21.6726 24.6165 23.9719 26.9158L28.8928 31.8367C31.1921 34.136 31.1921 37.864 28.8928 40.1633L23.9719 45.0842C21.6726 47.3835 17.9447 47.3835 15.6454 45.0842L10.7245 40.1633C8.42517 37.864 8.42517 34.136 10.7245 31.8367L15.6454 26.9158ZM56.3546 26.9158C54.0553 24.6165 50.3274 24.6165 48.0281 26.9158L43.1071 31.8367C40.8078 34.136 40.8078 37.8639 43.1071 40.1633L48.0281 45.0842C50.3274 47.3835 54.0553 47.3835 56.3546 45.0842L61.2755 40.1633C63.5748 37.8639 63.5748 34.136 61.2755 31.8367L56.3546 26.9158Z" fill="#477085"/>
<path fill-rule="evenodd" clip-rule="evenodd" d="M38.0816 12.8061C36.932 11.6565 35.068 11.6565 33.9184 12.8061L28.9974 17.727C27.8478 18.8767 27.8478 20.7406 28.9974 21.8903L33.9184 26.8112C35.068 27.9609 36.932 27.9609 38.0816 26.8112L43.0025 21.8903C44.1522 20.7406 44.1522 18.8767 43.0025 17.727L38.0816 12.8061L40.1058 10.782L38.0816 12.8061ZM38.0816 45.1888C36.932 44.0391 35.068 44.0391 33.9184 45.1888L28.9974 50.1097C27.8478 51.2594 27.8478 53.1233 28.9974 54.273L30.5617 55.8372L39.6459 46.7531L38.0816 45.1888ZM33.9183 59.1939L32.683 57.9586L41.7672 48.8744L43.0025 50.1097C44.1522 51.2594 44.1522 53.1233 43.0025 54.273L38.0816 59.1939C36.932 60.3435 35.068 60.3435 33.9183 59.1939ZM21.8903 28.9975C20.7406 27.8478 18.8767 27.8478 17.727 28.9975L12.8061 33.9184C11.6565 35.068 11.6565 36.932 12.8061 38.0816L17.727 43.0025C18.8767 44.1522 20.7406 44.1522 21.8903 43.0025L26.8112 38.0816C27.9608 36.932 27.9608 35.068 26.8112 33.9184L21.8903 28.9975ZM54.273 28.9974C53.1233 27.8478 51.2594 27.8478 50.1097 28.9974L45.1888 33.9184C44.0391 35.068 44.0391 36.932 45.1888 38.0816L46.7436 39.6365L55.8278 30.5523L54.273 28.9974ZM57.9491 32.6736L48.8649 41.7578L50.1097 43.0025C51.2594 44.1522 53.1233 44.1522 54.273 43.0025L59.1939 38.0816C60.3435 36.932 60.3435 35.068 59.1939 33.9184L57.9491 32.6736ZM31.8367 10.7245C34.136 8.42517 37.864 8.42517 40.1633 10.7245L45.0842 15.6454C47.3835 17.9447 47.3835 21.6726 45.0842 23.9719L40.1633 28.8929C37.864 31.1922 34.136 31.1922 31.8367 28.8928L26.9158 23.9719C24.6165 21.6726 24.6165 17.9447 26.9158 15.6454L31.8367 10.7245ZM31.8367 43.1072C34.136 40.8078 37.8639 40.8078 40.1633 43.1072L45.0842 48.0281C47.3835 50.3274 47.3835 54.0553 45.0842 56.3546L40.1633 61.2755C37.8639 63.5748 34.136 63.5748 31.8367 61.2755L26.9158 56.3546C24.6165 54.0553 24.6165 50.3274 26.9158 48.0281L31.8367 43.1072ZM23.9719 26.9158C21.6726 24.6165 17.9447 24.6165 15.6454 26.9158L10.7245 31.8367C8.42517 34.136 8.42517 37.864 10.7245 40.1633L15.6454 45.0842C17.9447 47.3835 21.6726 47.3835 23.9719 45.0842L28.8928 40.1633C31.1921 37.864 31.1921 34.136 28.8928 31.8367L23.9719 26.9158ZM48.0281 26.9158C50.3274 24.6165 54.0553 24.6165 56.3546 26.9158L61.2755 31.8367C63.5748 34.136 63.5748 37.8639 61.2755 40.1633L56.3546 45.0842C54.0553 47.3835 50.3274 47.3835 48.0281 45.0842L43.1071 40.1633C40.8078 37.8639 40.8078 34.136 43.1071 31.8367L48.0281 26.9158Z" fill="#263238"/>
</svg>
