<svg width="72" height="72" viewBox="0 0 72 72" fill="none" xmlns="http://www.w3.org/2000/svg">
<path d="M40.1536 58.2795C37.8596 60.5735 34.1404 60.5735 31.8464 58.2795L13.7205 40.1536C11.4265 37.8596 11.4265 34.1404 13.7205 31.8464L31.8464 13.7205C34.1404 11.4265 37.8596 11.4265 40.1536 13.7205L58.2795 31.8464C60.5735 34.1404 60.5735 37.8596 58.2795 40.1536L40.1536 58.2795Z" fill="#EB3B3B"/>
<path fill-rule="evenodd" clip-rule="evenodd" d="M15.7972 38.0768L23.8197 46.0993L46.0993 23.8197L38.0768 15.7972C36.9298 14.6503 35.0702 14.6503 33.9232 15.7972L15.7972 33.9232C14.6503 35.0702 14.6503 36.9298 15.7972 38.0768ZM48.176 25.8965L25.8965 48.176L29.8323 52.1119L52.1119 29.8323L48.176 25.8965ZM54.1886 31.9091L31.9091 54.1886L33.9232 56.2028C35.0702 57.3497 36.9298 57.3497 38.0768 56.2028L56.2028 38.0768C57.3497 36.9298 57.3497 35.0702 56.2028 33.9232L54.1886 31.9091ZM27.7556 54.1886L23.8198 50.2528L21.743 48.176L13.7205 40.1536C11.4265 37.8596 11.4265 34.1404 13.7205 31.8464L31.8464 13.7205C34.1404 11.4265 37.8596 11.4265 40.1536 13.7205L48.1761 21.7429L50.2529 23.8197L54.1887 27.7555L56.2655 29.8323L58.2795 31.8464C60.5735 34.1404 60.5735 37.8596 58.2795 40.1536L40.1536 58.2795C37.8596 60.5735 34.1404 60.5735 31.8464 58.2795L29.8324 56.2654L27.7556 54.1886Z" fill="#B01F24"/>
</svg>
