<svg width="72" height="72" viewBox="0 0 72 72" fill="none" xmlns="http://www.w3.org/2000/svg">
<path d="M9 15H66V21H9V15Z" fill="#EB3B3B"/>
<path d="M40.5 36C40.5 33 43.5 24 43.5 21H66V63H40.5C40.5 60 43.5 51 43.5 48C43.5 45 40.5 39 40.5 36Z" fill="#EB3B3B"/>
<path fill-rule="evenodd" clip-rule="evenodd" d="M10.1712 19.5L7.82476 10.1143C8.90055 9.83822 10.1557 9.47748 11.5257 9.0817L11.8736 8.98116L11.8737 8.98114C13.9065 8.39361 16.2304 7.72191 18.7468 7.0782C24.0798 5.71393 30.1871 4.5 36 4.5C41.8129 4.5 47.9202 5.71393 53.2533 7.0782C55.7696 7.72191 58.0935 8.39359 60.1263 8.98112L60.4743 9.0817C61.9846 9.51801 63.3553 9.91172 64.5 10.1964V19.5H46.9999H10.1712ZM7.48673 21.1315L4.54479 9.3638C4.4453 8.96585 4.51313 8.5445 4.73249 8.19788C4.95185 7.85125 5.30359 7.60958 5.70583 7.52913C6.87997 7.2943 8.56036 6.81567 10.6931 6.19955L11.0483 6.0969C13.076 5.5108 15.4405 4.82739 18.0033 4.1718C23.4202 2.78607 29.8129 1.5 36 1.5C42.1871 1.5 48.5798 2.78607 53.9968 4.1718C56.5596 4.8274 58.9241 5.51084 60.9519 6.09695L61.3069 6.19955C63.4397 6.81567 65.12 7.2943 66.2942 7.52913C66.9953 7.66936 67.5 8.28498 67.5 9V21C67.5 21.0016 67.5 21.0032 67.5 21.0048V63H67.4999C67.4999 63.8284 66.8284 64.5 65.9999 64.5H18.8877C11.053 64.5 4.86377 57.8529 5.42197 50.0382L7.48673 21.1315ZM10.3966 22.5L9.96805 28.5H15C16.9878 28.5 18.8501 29.4788 20.1857 30.8143C21.5212 32.1499 22.5 34.0122 22.5 36V43.4997L24 43.5C24.8284 43.5 25.5 44.1716 25.5 45C25.5 45.8284 24.8284 46.5 24 46.5H21C20.1716 46.5 19.5 45.8284 19.5 45V36C19.5 34.9878 18.9788 33.8501 18.0643 32.9357C17.1499 32.0212 16.0122 31.5 15 31.5H9.75376L8.41434 50.2519C7.98019 56.33 12.7941 61.5 18.8877 61.5H39.0288C39.1785 57.7418 39.8878 55.6166 40.6073 53.8179C40.6855 53.6225 40.7623 53.434 40.8372 53.2502C41.4913 51.645 42 50.3966 42 48C42 45.354 41.3726 44.0992 40.6696 42.6933L40.6584 42.6708C39.8659 41.0859 39 39.3399 39 36C39 32.7562 39.8148 30.3121 40.5606 28.0749L40.577 28.0257C41.1832 26.2069 41.7394 24.5226 41.9302 22.5H10.3966ZM44.9409 22.5C44.7407 25.0216 44.0657 27.0463 43.4394 28.9251L43.4394 28.9251L43.423 28.9743C42.6732 31.2237 42 33.2676 42 36C42 38.646 42.6274 39.9008 43.3304 41.3067L43.3416 41.3292C44.1341 42.9141 45 44.6601 45 48C45 50.998 44.2959 52.7197 43.616 54.3821L43.6156 54.383C43.5407 54.5662 43.4661 54.7487 43.3927 54.9321C42.7887 56.4421 42.1748 58.2098 42.0313 61.5H46.5288C46.6785 57.7418 47.3878 55.6166 48.1073 53.8179C48.1855 53.6225 48.2623 53.434 48.3372 53.2502C48.9913 51.645 49.5 50.3966 49.5 48C49.5 45.2916 48.9886 44.2942 48.3719 43.0913L48.3719 43.0912L48.3718 43.0912L48.3718 43.0911C48.3055 42.9617 48.2379 42.8299 48.1696 42.6933L48.1584 42.6708C47.3659 41.0859 46.5 39.3399 46.5 36C46.5 32.7562 47.3148 30.3121 48.0606 28.0749L48.077 28.0257C48.6832 26.2069 49.2394 24.5226 49.4302 22.5H46.9999H44.9409ZM52.4409 22.5C52.2407 25.0217 51.5657 27.0464 50.9394 28.9251L50.923 28.9743C50.1732 31.2237 49.5 33.2676 49.5 36C49.5 38.646 50.1274 39.9008 50.8304 41.3067L50.8416 41.3292C51.6341 42.9141 52.5 44.6601 52.5 48C52.5 50.998 51.7959 52.7197 51.116 54.3821C51.0409 54.5656 50.9662 54.7484 50.8927 54.9321C50.2887 56.4421 49.6748 58.2098 49.5313 61.5H55.5147C55.5888 57.8585 55.9316 55.8186 56.2791 54.0808C56.3175 53.8889 56.3556 53.7024 56.3929 53.5191L56.3934 53.517C56.7224 51.904 57 50.5433 57 48C57 45.1845 56.6578 43.8159 56.3003 42.3857L56.2948 42.3638C55.9043 40.802 55.5 39.1701 55.5 36C55.5 32.8758 55.8919 30.5244 56.2666 28.2763L56.2666 28.2762L56.2704 28.2534C56.5764 26.4177 56.8698 24.65 56.9666 22.5H52.4409ZM59.9693 22.5C59.8699 24.9047 59.5457 26.85 59.2334 28.7237L59.2334 28.7238L59.2296 28.7466C58.8554 30.9915 58.5 33.1348 58.5 36C58.5 38.8155 58.8422 40.1841 59.1997 41.6143L59.2052 41.6362C59.5957 43.198 60 44.8299 60 48C60 50.8507 59.6714 52.4597 59.3332 54.1153C59.2957 54.2988 59.2581 54.4828 59.2209 54.6692C58.9067 56.2398 58.5879 58.0919 58.5153 61.5H64.5V22.5H59.9693Z" fill="#B01F24"/>
</svg>
