<svg width="72" height="72" viewBox="0 0 72 72" fill="none" xmlns="http://www.w3.org/2000/svg">
<path d="M6 15H67.5V21H6V15Z" fill="#EB3B3B"/>
<path d="M51 66H67.5V21H51V66Z" fill="#EB3B3B"/>
<path fill-rule="evenodd" clip-rule="evenodd" d="M36.6708 1.65836C36.2485 1.44721 35.7515 1.44721 35.3292 1.65836L23.7655 7.44022L6.2466 4.52041C5.81167 4.44792 5.36687 4.57046 5.03044 4.85547C4.694 5.14048 4.5 5.55907 4.5 6V21C4.5 21.8284 5.17157 22.5 6 22.5H7.39659L4.92985 59.5011C4.64126 63.83 8.07476 67.5 12.4132 67.5H51H58.5H65.9999C66.8283 67.5 67.4999 66.8284 67.4999 66V21.016L67.5 21V6C67.5 5.55907 67.306 5.14048 66.9696 4.85547C66.6331 4.57046 66.1883 4.44792 65.7534 4.52041L48.2345 7.44022L36.6708 1.65836ZM57 64.5H52.5V22.5H57V64.5ZM12.4132 64.5H49.5V22.5H10.4033L10.0033 28.5H18C19.9878 28.5 21.8501 29.4788 23.1857 30.8143C24.5212 32.1499 25.5 34.0122 25.5 36V43.4997L27 43.5C27.8284 43.5 28.5 44.1716 28.5 45C28.5 45.8284 27.8284 46.5 27 46.5H24C23.1716 46.5 22.5 45.8284 22.5 45V36C22.5 34.9878 21.9788 33.8501 21.0643 32.9357C20.1499 32.0212 19.0122 31.5 18 31.5H9.80325L7.92321 59.7007C7.75005 62.298 9.81015 64.5 12.4132 64.5ZM58.5 19.5H51H8.99992H7.5V7.77069L23.7534 10.4796C24.0661 10.5317 24.3873 10.4834 24.6708 10.3416L36 4.67705L47.3292 10.3416C47.6127 10.4834 47.9339 10.5317 48.2466 10.4796L64.5 7.77069V19.5H58.5ZM64.4999 64.5H60V22.5H64.4999V64.5ZM27 55.4146C25.3353 56.3039 23.1677 57 21 57C18.0177 57 13.8 57 12 51C16.379 52.8246 18.2056 51.3201 19.9772 49.8611C21.1185 48.9211 22.2368 48 24 48C25.2058 48 26.1962 48.2775 27 48.696C27.8039 48.2775 28.7942 48 30 48C31.7632 48 32.8815 48.9211 34.0228 49.8611C35.7944 51.3201 37.621 52.8246 42 51C40.2 57 35.9823 57 33 57C30.8323 57 28.6647 56.3039 27 55.4146Z" fill="#B01F24"/>
</svg>
