<svg width="72" height="72" viewBox="0 0 72 72" fill="none" xmlns="http://www.w3.org/2000/svg">
<rect x="6" y="15" width="60" height="6" fill="#477085"/>
<path d="M6 51C6 46.5 9 25.5 9 21H12V21.0001C12 25.5003 12 49.5 16.5 57C19.9514 62.7522 27 64.5 24 66C7.5 66 6 57 6 51Z" fill="#477085"/>
<path d="M51 30C40.5 30 25.5 28.5 21 21H66V66H57C55.5 66 52.5 60 51 54C49.5 48 51 36 51 30Z" fill="#477085"/>
<path fill-rule="evenodd" clip-rule="evenodd" d="M36.6708 1.65836C36.2485 1.44721 35.7515 1.44721 35.3292 1.65836L23.7655 7.44022L6.2466 4.52041C5.81167 4.44792 5.36687 4.57046 5.03044 4.85547C4.694 5.14048 4.5 5.55907 4.5 6V21C4.5 21.8284 5.17157 22.5 6 22.5H7.48954C7.39758 28.9885 6.71385 33.0635 6.0242 36.8567C5.98218 37.0877 5.94009 37.318 5.89807 37.5479L5.8976 37.5505C5.18954 41.4242 4.5 45.1966 4.5 51C4.5 57.424 6.93096 61.595 9.89881 64.1389C12.795 66.6214 16.1411 67.5 18 67.5H31.84H33H57.0001L64.5 67.5L66 67.5C66.8284 67.5 67.5 66.8284 67.5 66L67.5 21L64.5 19.1179V19.1135L67.5 20.9952V6C67.5 5.55907 67.306 5.14048 66.9696 4.85547C66.6331 4.57046 66.1883 4.44792 65.7534 4.52041L48.2345 7.44022L36.6708 1.65836ZM50.2124 10.152L36.6708 1.65836L50.2097 10.1524L48.2466 10.4796C47.9339 10.5317 47.6127 10.4834 47.3292 10.3416L36 4.67705L24.6708 10.3416C24.3873 10.4834 24.0661 10.5317 23.7534 10.4796L7.5 7.77069V19.5H9H12H21H34.5H58.5H64.5V19.1179L50.2097 10.1524L50.2124 10.152ZM10.4898 22.5C10.3969 29.241 9.68338 33.5017 8.97581 37.3933C8.93441 37.621 8.89308 37.8472 8.85195 38.0723C8.14794 41.9256 7.5 45.4721 7.5 51C7.5 56.576 9.56904 59.905 11.8512 61.8611C14.205 63.8786 16.8589 64.5 18 64.5H21.4447C16.3358 61.2761 12.8125 55.7381 12.3831 49.2971L10.5967 22.5H10.4898ZM31.84 64.5H33H53.8804C52.5074 62.3907 51.5237 59.9067 50.8161 57.2447C49.7928 53.3953 49.3164 49.057 49.1265 44.6902C48.9364 40.3175 49.0319 35.8641 49.1728 31.7764L49.1825 31.5H39C35.7824 31.5 31.8254 30.7028 28.2658 29.1207C25.017 27.6768 21.9288 25.501 20.1155 22.5H13.6033L14.2033 31.5H21C22.9878 31.5 24.8501 32.4788 26.1857 33.8143C27.5212 35.1499 28.5 37.0122 28.5 39V46.4997L30 46.5C30.8284 46.5 31.5 47.1716 31.5 48C31.5 48.8284 30.8284 49.5 30 49.5H27C26.1716 49.5 25.5 48.8284 25.5 48V39C25.5 37.9878 24.9788 36.8501 24.0643 35.9357C23.1499 35.0212 22.0122 34.5 21 34.5H14.4033L15.3765 49.0976C15.9543 57.765 23.1533 64.5 31.84 64.5ZM50.2124 10.152L64.5 7.77069V19.1135L50.2124 10.152ZM47.6775 28.0613C48.4407 28.3158 48.9824 28.4411 49.295 28.4832C49.3786 26.3102 49.456 24.2976 49.4864 22.5H38.1213L38.5607 22.9393C39.8787 24.2574 42.195 25.6694 44.5171 26.7694C45.6596 27.3106 46.7595 27.7554 47.6775 28.0613ZM33.8793 22.5006L23.8453 22.5C25.2667 24.0743 27.2385 25.3812 29.4842 26.3793C32.6746 27.7972 36.2176 28.5 39 28.5H41.3079C39.4762 27.4978 37.6836 26.3049 36.4393 25.0607L33.8793 22.5006ZM61.8991 64.5L57.6442 64.5C55.8714 62.5305 54.5962 59.7875 53.7154 56.474C52.7699 52.9172 52.3088 48.818 52.1237 44.5598C51.9388 40.3075 52.0308 35.9485 52.1711 31.8798C52.2088 30.7866 52.2501 29.7106 52.2905 28.6624L52.2905 28.6614L52.2905 28.6608L52.2905 28.6604L52.2906 28.6601L52.2906 28.6599C52.3756 26.4497 52.4558 24.3632 52.4867 22.5L56.8733 22.5C55.5953 38.7049 55.6565 52.833 61.8991 64.5ZM64.5 63.0022C58.7243 52.1449 58.5899 38.7734 59.8828 22.5H64.5V63.0022Z" fill="#384249"/>
</svg>
