<svg width="72" height="72" viewBox="0 0 72 72" fill="none" xmlns="http://www.w3.org/2000/svg">
<path fill-rule="evenodd" clip-rule="evenodd" d="M25.4809 16.634C23.1345 14.4553 19.3302 14.4553 16.9838 16.634L7.75981 25.1989C5.4134 27.3776 5.4134 30.9101 7.75981 33.0888L22.5204 46.7946L22.5274 46.8011L31.7515 55.366C32.0448 55.6383 32.3608 55.8766 32.694 56.0808C33.7993 56.7585 35.0927 57.0614 36.3661 56.9897C37.7796 56.9101 39.1685 56.3688 40.2486 55.366L49.4726 46.8011L64.2402 33.0888C66.5866 30.9101 66.5866 27.3777 64.2402 25.1989L55.0162 16.6341C52.6698 14.4553 48.8655 14.4553 46.5191 16.6341L36 26.4014L25.4809 16.634Z" fill="black" fill-opacity="0.2"/>
<path fill-rule="evenodd" clip-rule="evenodd" d="M33.8448 28.3485L20.3732 40.8537L9.87728 31.1075C8.70711 30.021 8.70711 28.2653 9.87728 27.1787L19.0937 18.6207C20.2724 17.5261 22.1899 17.5261 23.3686 18.6207L33.8448 28.3485ZM55.0217 16.6358C53.799 15.5004 52.1807 14.9561 50.5787 15.0028C49.0849 15.0341 47.6014 15.5788 46.4615 16.6369L35.9717 26.3742L25.4842 16.6358C23.1353 14.4547 19.327 14.4547 16.9781 16.6358L7.76168 25.1939C5.41277 27.375 5.41277 30.9113 7.76168 33.0924L31.7468 55.3642C32.0405 55.6368 32.3569 55.8754 32.6904 56.0798C34.4852 57.1802 36.7752 57.2937 38.6721 56.4202C39.2427 56.1575 39.7777 55.8055 40.253 55.3642L49.4694 46.8061L64.2381 33.0924C66.587 30.9113 66.587 27.375 64.2381 25.1939L55.0217 16.6358ZM22.5164 42.8129L37.7397 28.6816C37.8714 28.5939 37.9971 28.4951 38.1155 28.3852L48.6312 18.6207C49.3091 17.9912 50.2314 17.7237 51.117 17.8183C51.7479 17.8968 52.3572 18.1611 52.8421 18.6112L56.3847 21.8997L28.1858 48.0757L22.5164 42.8129ZM30.3127 50.05L33.8372 53.3216C35.0118 54.412 36.9163 54.412 38.0909 53.3216L62.036 31.0942C63.2106 30.0038 63.2106 28.236 62.036 27.1456L58.5115 23.874L30.3127 50.05Z" fill="black" fill-opacity="0.2"/>
</svg>
