<svg width="72" height="72" viewBox="0 0 72 72" fill="none" xmlns="http://www.w3.org/2000/svg">
<path fill-rule="evenodd" clip-rule="evenodd" d="M46.4121 55.3083C48.8391 57.5639 52.7742 57.5639 55.2012 55.3083L64.1797 46.9642C66.6068 44.7086 66.6068 41.0516 64.1797 38.796L49.5003 25.1538C49.4611 25.1153 49.4212 25.0772 49.3806 25.0395L41.0373 17.2888L40.3948 16.6917C37.9678 14.4361 34.0327 14.4361 31.6057 16.6917L22.6272 25.0358C22.5706 25.0884 22.5153 25.1418 22.4614 25.1958L7.82062 38.7969C5.39312 41.052 5.39313 44.7083 7.82062 46.9634L16.8007 55.3058C19.2282 57.5609 23.164 57.5609 25.5915 55.3058L36.0024 45.6341L46.4121 55.3083Z" fill="#477085"/>
<path fill-rule="evenodd" clip-rule="evenodd" d="M47.4578 27.3506C47.4381 27.3322 47.4186 27.3137 47.3994 27.2948C47.3796 27.2754 47.3592 27.256 47.3385 27.2367L38.9952 19.4859L38.3523 18.8884C37.0766 17.7029 34.9239 17.7029 33.6482 18.8884L24.6698 27.2325C24.6408 27.2595 24.6127 27.2866 24.5855 27.3138C24.5587 27.3407 24.5314 27.3671 24.5035 27.393L9.86276 40.994C8.71245 42.0627 8.71245 43.6976 9.86276 44.7663L18.8428 53.1086C20.1191 54.2942 22.2731 54.2942 23.5493 53.1086L33.9603 43.437C34.0145 43.3866 34.0701 43.3386 34.127 43.293L49.3726 29.1301L47.4578 27.3506ZM53.771 29.1228L49.5003 25.1538C49.4611 25.1153 49.4212 25.0772 49.3806 25.0395L40.3949 16.6917C37.9678 14.4361 34.0327 14.4361 31.6057 16.6917L22.6272 25.0358C22.5706 25.0884 22.5153 25.1418 22.4614 25.1958L7.82062 38.7969C5.39312 41.052 5.39313 44.7083 7.82062 46.9634L16.8007 55.3058C19.2282 57.5609 23.164 57.5609 25.5915 55.3058L36.0024 45.6341L46.4121 55.3083C48.8391 57.5639 52.7742 57.5639 55.2012 55.3083L64.1797 46.9642C66.6068 44.7086 66.6068 41.0516 64.1797 38.796L61.3449 36.1615L61.3467 36.1598L59.1494 34.1177L59.1476 34.1195L53.7734 29.125L53.7758 29.1228H53.771ZM51.5698 31.1721L38.2059 43.587L43.5831 48.5843L56.9444 36.1669L51.5698 31.1721ZM48.4546 53.1116L45.7804 50.6263L59.1417 38.209L62.1371 40.9928C63.2876 42.0619 63.2876 43.6983 62.1371 44.7675L53.1587 53.1116C51.883 54.2971 49.7303 54.2971 48.4546 53.1116Z" fill="#263238"/>
</svg>
