<svg width="36" height="36" viewBox="0 0 36 36" fill="none" xmlns="http://www.w3.org/2000/svg">
<path fill-rule="evenodd" clip-rule="evenodd" d="M23.206 27.6542C24.4196 28.7819 26.3871 28.7819 27.6006 27.6542L32.0899 23.4821C33.3034 22.3543 33.3034 20.5258 32.0899 19.398L24.7502 12.5769C24.7305 12.5577 24.7106 12.5386 24.6903 12.5198L20.5187 8.64439L20.1974 8.34584C18.9839 7.21805 17.0164 7.21805 15.8028 8.34584L11.3136 12.5179C11.2853 12.5442 11.2577 12.5709 11.2307 12.5979L3.91031 19.3985C2.69656 20.526 2.69656 22.3541 3.91031 23.4817L8.40036 27.6529C9.61411 28.7804 11.582 28.7804 12.7957 27.6529L18.0012 22.8171L23.206 27.6542Z" fill="#263238"/>
</svg>
